# xmcd CD database file
#
# Track frame offsets:
#	150
#	14402
#	33752
#	69498
#	92517
#	106492
#	121570
#	138529
#	160964
#	177917
#	200333
#
# Disc length: 3107 seconds
#
# Revision: 3
# Processed by: cddbd v1.5.1PL2 Copyright (c) Steve Scherf et al.
# Submitted via: CDex 1.51
#
DISCID=880c210b
DTITLE=Julian Sas - Where will it end!?
DYEAR=1996
DGENRE=Blues
TTITLE0=Turpentine Moan
TTITLE1=Honey Babe
TTITLE2=Make Up Your Mind
TTITLE3=Goin' Down
TTITLE4=Tryin' To Do Right
TTITLE5=Travelling Home
TTITLE6=Home Feeling
TTITLE7=Voodoo Love
TTITLE8=I Don't Know
TTITLE9=Stranger Blues
TTITLE10=Serves Me Right To Suffer
EXTD=YEAR: 1996
EXTT0=
EXTT1=
EXTT2=
EXTT3=
EXTT4=
EXTT5=
EXTT6=
EXTT7=
EXTT8=
EXTT9=
EXTT10=
PLAYORDER=
